<?xml version="1.0" standalone="no"?>
<!DOCTYPE svg PUBLIC "-//W3C//DTD SVG 20010904//EN"
 "http://www.w3.org/TR/2001/REC-SVG-20010904/DTD/svg10.dtd">
<svg version="1.0" xmlns="http://www.w3.org/2000/svg"
 width="300.000000pt" height="300.000000pt" viewBox="0 0 300.000000 300.000000"
 preserveAspectRatio="xMidYMid meet">
<metadata>
Created by potrace 1.10, written by Peter Selinger 2001-2011
</metadata>
<g transform="translate(0.000000,300.000000) scale(0.100000,-0.100000)"
fill="#000000" stroke="none">
<path d="M734 2900 c-202 -22 -360 -114 -424 -245 -50 -103 -27 -250 53 -334
58 -61 153 -87 221 -61 14 5 26 6 26 2 0 -4 -12 -42 -26 -85 -25 -75 -25 -79
-8 -98 16 -18 32 -19 266 -19 233 0 249 1 268 20 18 18 18 22 4 72 -9 29 -20
61 -25 70 -5 9 -9 24 -9 32 0 13 5 14 26 6 121 -46 266 58 293 211 26 151 -51
285 -212 364 -115 56 -297 83 -453 65z m287 -104 c127 -27 238 -104 274 -188
32 -78 9 -190 -49 -236 -60 -47 -144 -35 -209 29 -44 42 -49 44 -78 29 -27
-15 -24 -41 16 -160 19 -57 35 -106 35 -109 0 -4 -77 -6 -170 -6 -110 0 -168
4 -166 10 3 6 21 60 42 122 37 110 38 112 19 132 -25 29 -41 26 -78 -13 -103
-109 -244 -70 -277 77 -31 139 87 268 285 312 80 18 274 18 356 1z m-594 -73
c-21 -20 -45 -49 -53 -65 -8 -15 -17 -28 -20 -28 -13 0 33 69 65 97 49 45 54
42 8 -4z m253 -417 c-20 -61 -40 -86 -40 -52 0 8 -11 24 -26 35 l-25 20 23 12
c13 7 36 23 52 36 16 13 31 22 33 19 3 -3 -5 -34 -17 -70z m378 30 l42 -28
-26 -21 c-14 -11 -29 -29 -33 -40 -6 -17 -12 -9 -29 43 -12 35 -22 70 -22 77
0 15 1 15 68 -31z m-394 -202 c18 -18 13 -34 -12 -34 -38 0 -45 14 -31 60 12
41 13 42 20 17 4 -15 14 -34 23 -43z m405 8 c8 -27 7 -31 -16 -37 -38 -9 -46
7 -20 42 25 36 25 36 36 -5z"/>
<path d="M2063 2895 c-124 -27 -224 -94 -292 -196 -44 -65 -81 -169 -81 -225
0 -34 1 -34 44 -34 l44 0 7 49 c22 161 164 302 319 318 l56 6 0 48 c0 56 2 55
-97 34z"/>
<path d="M2250 2860 l0 -50 44 0 44 0 4 46 c2 25 1 47 -1 50 -2 2 -24 4 -48 4
l-43 0 0 -50z"/>
<path d="M140 2157 c0 -43 0 -43 47 -55 61 -17 118 -74 135 -135 12 -47 12
-47 56 -47 l45 0 -6 45 c-4 25 -15 62 -26 83 -41 78 -145 151 -218 152 -32 0
-33 -1 -33 -43z"/>
<path d="M1839 2096 c-121 -42 -213 -125 -269 -240 -33 -70 -55 -174 -46 -227
6 -35 3 -39 -95 -135 -55 -55 -117 -121 -136 -147 -43 -58 -73 -150 -73 -222
0 -111 64 -240 147 -298 82 -56 132 -72 228 -72 152 0 167 10 506 352 232 235
290 298 311 343 62 135 63 276 1 408 -30 64 -120 164 -180 199 -114 67 -272
82 -394 39z m316 -105 c80 -40 156 -120 186 -199 31 -80 30 -195 -1 -277 -21
-55 -45 -83 -303 -342 -313 -315 -329 -327 -447 -326 -79 0 -124 18 -184 73
-63 58 -90 118 -90 200 -1 108 12 130 165 285 l137 140 4 105 c3 95 6 112 36
172 48 97 139 172 239 198 21 5 73 8 117 6 62 -3 91 -10 141 -35z m-585 -428
c-7 -10 -24 -27 -38 -38 -23 -17 -22 -14 8 23 33 41 52 51 30 15z m660 -266
c0 -1 -60 -61 -132 -132 l-133 -130 130 133 c120 123 135 137 135 129z m-270
-270 c0 -1 -28 -29 -62 -62 l-63 -60 60 63 c55 58 65 67 65 59z"/>
<path d="M1935 1859 c-84 -74 -53 -210 55 -239 139 -37 232 140 126 238 -31
28 -43 32 -91 32 -46 0 -59 -4 -90 -31z m123 -71 c7 -7 12 -21 12 -33 0 -12
-5 -26 -12 -33 -7 -7 -21 -12 -33 -12 -12 0 -26 5 -33 12 -7 7 -12 21 -12 33
0 12 5 26 12 33 7 7 21 12 33 12 12 0 26 -5 33 -12z"/>
<path d="M1460 2096 c-122 -32 -219 -144 -236 -270 l-7 -46 46 0 c44 0 45 1
52 37 20 106 112 193 205 193 29 0 30 1 30 50 0 57 -6 59 -90 36z"/>
<path d="M500 1854 c-19 -8 -51 -30 -70 -48 -19 -18 -55 -39 -80 -47 -59 -18
-125 -84 -141 -141 -7 -23 -30 -62 -50 -85 -44 -48 -74 -136 -64 -186 3 -17
13 -49 22 -69 15 -34 14 -40 -2 -75 -26 -54 -24 -138 4 -196 70 -146 266 -175
377 -57 16 16 36 30 45 30 9 0 36 11 61 24 l44 23 94 -113 c72 -88 99 -114
118 -114 35 0 315 282 310 313 -2 13 -45 57 -115 115 l-111 94 24 46 c13 25
24 52 24 61 0 9 14 29 32 46 89 84 91 233 5 324 -66 69 -177 91 -263 52 -39
-18 -41 -18 -75 0 -42 23 -140 24 -189 3z m259 -65 c-20 -13 -55 -11 -67 4 -8
9 0 11 35 8 31 -2 41 -6 32 -12z m-74 -42 l39 -26 52 29 c57 33 88 37 138 16
61 -25 97 -99 81 -163 -3 -16 -26 -46 -49 -68 -31 -29 -45 -51 -49 -79 -13
-81 -62 -121 -146 -119 -50 1 -60 -3 -88 -30 -30 -28 -33 -37 -33 -86 0 -88
-52 -151 -125 -151 -18 0 -39 -14 -69 -46 -38 -41 -49 -47 -93 -51 -35 -4 -59
0 -82 11 -71 37 -94 141 -46 206 30 41 32 67 4 96 -23 24 -35 88 -25 130 4 15
27 46 52 70 31 31 44 51 44 71 0 61 68 123 134 123 17 0 34 11 53 36 52 69
134 81 208 31z m-446 -199 c-12 -22 -69 -81 -69 -71 0 6 71 93 77 93 2 0 -2
-10 -8 -22z m752 -46 c-21 -30 -51 -58 -51 -49 0 8 60 77 67 77 2 0 -5 -13
-16 -28z m-70 -130 c-16 -30 -14 -59 7 -90 l17 -27 -36 23 c-20 12 -44 22 -54
22 -13 0 -7 12 26 48 46 50 58 57 40 24z m-731 -132 c0 -9 -6 -24 -13 -34 -11
-16 -13 -11 -13 34 0 45 2 50 13 34 7 -10 13 -25 13 -34z m518 20 c-14 -20
-25 -27 -32 -20 -11 11 20 50 41 50 10 0 7 -9 -9 -30z m251 -72 c49 -40 90
-75 90 -78 1 -3 -42 -49 -94 -101 l-94 -96 -80 96 c-65 79 -78 99 -69 114 5
10 10 41 11 68 l2 49 40 1 c22 0 49 4 60 9 35 15 44 11 134 -62z m156 -83 c0
-10 -25 -38 -55 -64 l-55 -46 38 44 c44 53 46 78 10 123 l-28 33 45 -36 c25
-20 45 -44 45 -54z m-414 -63 l29 -43 -40 32 c-28 23 -46 30 -64 27 -28 -6
-27 -2 13 50 l26 32 3 -27 c2 -15 17 -47 33 -71z m207 -154 c-34 -44 -58 -46
-87 -7 -13 17 -20 30 -15 27 5 -2 21 -10 36 -17 24 -12 30 -11 55 7 38 29 40
27 11 -10z"/>
<path d="M1970 798 l0 -48 45 0 45 0 0 48 0 47 -45 0 -45 0 0 -47z"/>
<path d="M109 639 c-20 -20 -21 -29 -16 -153 6 -170 21 -211 101 -292 105
-105 47 -99 931 -99 884 0 826 -6 931 99 78 79 98 132 99 268 l0 98 76 0 c73
0 77 -1 83 -25 10 -39 63 -92 109 -109 23 -9 114 -22 202 -30 159 -15 160 -15
205 7 36 18 49 31 64 70 19 47 19 47 0 95 -15 38 -28 51 -64 70 l-44 22 -1328
0 -1328 0 -21 -21z m60 -56 c-13 -16 -25 -30 -26 -32 -2 -2 -3 10 -3 27 0 28
3 32 27 32 l26 0 -24 -27z m1965 -9 c-25 -32 -28 -34 -37 -17 -5 10 -17 26
-25 36 -14 16 -12 17 37 17 l52 0 -27 -36z m256 6 c-22 -31 -21 -40 13 -77 11
-13 15 -23 9 -23 -6 0 -23 17 -38 38 -16 20 -39 49 -53 65 l-25 27 58 0 57 0
-21 -30z m408 -25 c18 -6 15 -64 -4 -72 -8 -3 -85 0 -170 7 -128 11 -161 17
-186 34 -18 12 -33 26 -35 31 -3 10 367 10 395 0z m-738 -90 c0 -108 -13 -151
-63 -204 -18 -18 -50 -42 -72 -52 -38 -18 -81 -19 -798 -19 -836 0 -796 -3
-866 63 -55 53 -71 98 -71 210 l0 97 935 0 935 0 0 -95z"/>
</g>
</svg>
